<svg width="20" height="20" viewBox="0 0 24 24" fill="none" xmlns="http://www.w3.org/2000/svg">
  <path d="M20 7.2C19.4 7.4 18.7 7.6 18 7.7C18.7 7.3 19.2 6.6 19.4 5.8C18.8 6.2 18.1 6.4 17.3 6.6C16.7 6 15.9 5.6 15 5.6C13.1 5.6 11.6 7.1 11.6 9C11.6 9.2 11.6 9.4 11.6 9.6C8.9 9.5 6.4 8.2 4.6 6.2C4.3 6.7 4.2 7.3 4.2 7.9C4.2 9.1 4.8 10.2 5.8 10.8C5.3 10.8 4.8 10.6 4.3 10.4V10.5C4.3 12.2 5.6 13.6 7.3 13.9C7 14 6.6 14 6.2 14C6 14 5.8 14 5.6 13.9C6 15.4 7.4 16.5 9 16.5C7.8 17.5 6.3 18.1 4.7 18.1C4.5 18.1 4.3 18.1 4 18.1C5.6 19.1 7.6 19.7 9.8 19.7C15 19.7 17.8 15.4 17.8 11.6C17.8 11.5 17.8 11.3 17.8 11.2C18.5 10.7 19.1 10 19.5 9.2C19 9.4 18.4 9.5 17.8 9.5C18.4 9.1 18.9 8.5 19.1 7.8" stroke="currentColor" stroke-width="1.4" stroke-linecap="round" stroke-linejoin="round"/>
</svg>
